# xmcd CD database file
#
# Track frame offsets:
#	150
#	17940
#	67440
#	84090
#	122505
#	157215
#	173360
#	187607
#	220725
#	243882
#
# Disc length: 3580 seconds
#
# Revision: 3
# Processed by: cddbd v1.5.2PL0 Copyright (c) Steve Scherf et al.
# Submitted via: CDex 1.51
#
DISCID=790dfa0a
DTITLE=Albert Collins And The Icebreakers - Live '92/'93
DYEAR=1900
DGENRE=Blues
TTITLE0=Iceman
TTITLE1=Lights Are On But Nobody's Home
TTITLE2=If You Love Me (Like You Say)
TTITLE3=Put The Shoe On The Other Foot
TTITLE4=Frosty
TTITLE5=Travelin' South
TTITLE6=Talkin Woman
TTITLE7=My Woman Has A Black Cat Bone
TTITLE8=I Ain't Drunk
TTITLE9=T-Bone Shuffle
EXTD=
EXTT0=
EXTT1=
EXTT2=
EXTT3=
EXTT4=
EXTT5=
EXTT6=
EXTT7=
EXTT8=
EXTT9=
PLAYORDER=
